<?xml version="1.0" encoding="UTF-8"?> <svg xmlns="http://www.w3.org/2000/svg" id="Layer_1" data-name="Layer 1" viewBox="0 0 541.8809 138.2533"><defs><style>.cls-1,.cls-4{fill:#39607a;}.cls-2{fill:#001231;}.cls-3{fill:#08152f;}.cls-4{font-size:15.0953px;font-family:CenturyGothic-Italic, Century Gothic;font-style:italic;}</style></defs><title>VCG-logo</title><path class="cls-1" d="M152.58,26.0927c-.28.7067-.4758,1.3648-.7871,1.9627A37,37,0,0,1,132.8273,45.54a4.6946,4.6946,0,0,1-3.293-.0656,35.9313,35.9313,0,0,1-18.6968-17.3229,5.8245,5.8245,0,0,1,.1615-4.5511c3.99-8.0135,10.44-13.5073,18.5393-17.1087a4.1913,4.1913,0,0,1,3.0057-.182c8.5154,3.7042,15.1571,9.5,19.3614,17.8929A15.8511,15.8511,0,0,1,152.58,26.0927Z" transform="translate(-29.1191 -6.106)"></path><path class="cls-1" d="M182.379,58.2943c-.3344.7369-.6138,1.4624-.98,2.1415a29.2528,29.2528,0,0,1-14.1318,13.0683,5.2485,5.2485,0,0,1-3.8053.01,27.887,27.887,0,0,1-14.1142-13.0379,5.3874,5.3874,0,0,1-.08-4.2369c3.1039-6.2787,8.2055-10.5724,14.5017-13.4631a3.7735,3.7735,0,0,1,2.7586-.132A29.9313,29.9313,0,0,1,181.821,56.9129C182.0347,57.3428,182.1833,57.8051,182.379,58.2943Z" transform="translate(-29.1191 -6.106)"></path><path class="cls-1" d="M97.27,42.3013a17.9316,17.9316,0,0,1,1.8593.6529,29.272,29.272,0,0,1,14.1778,13.3982,4.7156,4.7156,0,0,1,.0443,3.7,28.4786,28.4786,0,0,1-14.6881,13.625,4.22,4.22,0,0,1-3.0121.0167A28.6638,28.6638,0,0,1,80.8338,59.792a3.81,3.81,0,0,1-.0766-2.9548,29.83,29.83,0,0,1,15.0141-14.143A9.4533,9.4533,0,0,1,97.27,42.3013Z" transform="translate(-29.1191 -6.106)"></path><path class="cls-1" d="M65.63,103.2539c-1.0312-.4619-2.2094-.9063-3.309-1.497a22.7417,22.7417,0,0,1-9.9578-9.9633,5.3773,5.3773,0,0,1-.0092-4.2167,22.954,22.954,0,0,1,11.53-10.7247,4.9071,4.9071,0,0,1,3.5254-.1283A23.679,23.679,0,0,1,79.3922,87.7967a4.1243,4.1243,0,0,1,.2932,3.1891,24.6964,24.6964,0,0,1-12.4616,11.8A13.068,13.068,0,0,1,65.63,103.2539Z" transform="translate(-29.1191 -6.106)"></path><path class="cls-1" d="M196.44,103.2639c-.7878-.34-1.6967-.6706-2.55-1.11a27.1724,27.1724,0,0,1-10.5734-9.8134,4.53,4.53,0,0,1,.0507-5.3682,25.5394,25.5394,0,0,1,11.6345-10.2811,4.4263,4.4263,0,0,1,3.2668.0143A24.0973,24.0973,0,0,1,210.2361,87.81a4.493,4.493,0,0,1,.1076,3.4788c-2.5976,5.4026-6.9679,9.0267-12.3327,11.5249A11.2416,11.2416,0,0,1,196.44,103.2639Z" transform="translate(-29.1191 -6.106)"></path><path class="cls-1" d="M145.8733,81.2069c-2.2229,2.6389-4.1341,5.8658-6.8917,7.9979-7.6368,5.9044-8.14,6.351-15.4772-.0967-8.8221-7.7524-8.8509-10.0563-.0412-17.8432,7.4386-6.5751,7.9241-6.0221,15.66-.0213,2.313,1.7941,3.891,4.5621,5.6981,6.965A12.49,12.49,0,0,1,145.8733,81.2069Z" transform="translate(-29.1191 -6.106)"></path><path class="cls-1" d="M160.7121,89.4249c2.4609,1.6311,4.9223,2.7694,6.7453,4.5582,7.0093,6.8776,7.3171,8.3557-.0063,14.8871-6.3135,5.6308-7.1729,5.6629-13.5957-.0271-7.0508-6.2465-7.0116-8.1015.1491-14.9644C155.8449,92.1149,158.3021,90.9946,160.7121,89.4249Z" transform="translate(-29.1191 -6.106)"></path><path class="cls-1" d="M114.2909,100.6951a13.8724,13.8724,0,0,1-1.2195,2.8684c-1.7213,2.094-3.2619,4.4866-5.39,6.0672-5.9568,4.424-6.1332,4.7679-11.814-.0249-8.3029-7.0051-8.2908-9.1627-.1329-16.1734,5.684-4.8847,6.1872-4.5948,12.0565-.0348C110.3826,95.4112,112.2517,98.3549,114.2909,100.6951Z" transform="translate(-29.1191 -6.106)"></path><path class="cls-1" d="M52.2483,118.4343a23.4993,23.4993,0,0,1-1.76,3.0472c-8.0065,10.0816-11.9459,9.8608-19.98.1953-1.8433-2.2177-1.856-4.2807-.019-6.5121,8.0711-9.8038,11.98-9.87,19.979.1355A22.8963,22.8963,0,0,1,52.2483,118.4343Z" transform="translate(-29.1191 -6.106)"></path><path class="cls-1" d="M221.9184,129.719c-2.1732-1.346-4.3994-2.2816-6.0562-3.8276-7.2776-6.79-7.2882-8.4408-.152-14.7422,5.6149-4.958,6.736-5.0261,12.4154.0839,6.9491,6.2525,6.8379,7.8346.028,14.4274C226.4584,127.3018,224.142,128.3015,221.9184,129.719Z" transform="translate(-29.1191 -6.106)"></path><path class="cls-1" d="M196.3231,122.7132a29.9087,29.9087,0,0,1-2.9665,4.4794c-7.2277,7.5093-9.4677,7.5009-16.7133-.29-3.32-3.57-3.2374-5.1271.1926-8.6979,7.2272-7.524,9.4515-7.5748,16.9271.4055A25.4452,25.4452,0,0,1,196.3231,122.7132Z" transform="translate(-29.1191 -6.106)"></path><path class="cls-1" d="M88.4426,122.6706a25.4273,25.4273,0,0,1-2.51,4.0287c-7.45,8.0691-9.8605,8.0245-17.0758.2747-3.2674-3.5093-3.2854-5.0689-.0883-8.512,7.31-7.8723,9.8437-7.8188,17.3015.3334A24.3161,24.3161,0,0,1,88.4426,122.6706Z" transform="translate(-29.1191 -6.106)"></path><path class="cls-1" d="M141.2338,119.693a59.9075,59.9075,0,0,1-5.1854,5.9963c-3.7309,3.3047-5.98,3.3179-9.6388.0172-5.6663-5.1113-5.527-6.9284-.1251-11.957,3.743-3.4843,5.9816-3.4752,9.8366-.029A58.9788,58.9788,0,0,1,141.2338,119.693Z" transform="translate(-29.1191 -6.106)"></path><path class="cls-1" d="M159.5215,137.6967c-.8572,2.6447-3.09,4.42-5.5714,6.04-1.8006,1.1758-3.3273.4068-4.4545-.7672-1.6878-1.7578-4.3138-3.8783-4.2513-5.7689.1042-3.1529,3.22-5.0667,6.1035-6.4666a2.3121,2.3121,0,0,1,1.1169-.2258C154.7825,130.6677,159.4545,135.2151,159.5215,137.6967Z" transform="translate(-29.1191 -6.106)"></path><path class="cls-1" d="M117.3409,137.7016c-.8429,2.7566-3.0994,4.5091-5.6019,6.1011-1.9681,1.2519-3.5491.1677-4.65-1.0466-1.6063-1.7711-4.2926-4.5835-3.7815-5.8282,1.0237-2.4934,3.8883-4.24,6.0351-6.25a1.6,1.6,0,0,1,1.1138-.1663C112.8877,130.7789,117.3914,135.327,117.3409,137.7016Z" transform="translate(-29.1191 -6.106)"></path><polygon class="cls-2" points="245.645 53.636 230.236 17.717 230.147 17.511 224.249 17.511 244.797 65.413 244.886 65.619 246.365 65.619 267.295 17.511 261.395 17.511 245.645 53.636"></polygon><path class="cls-2" d="M344.0328,60.0717a20.8639,20.8639,0,0,1-16.4109,7.6846A20.3809,20.3809,0,0,1,312.8505,62.05a19.1562,19.1562,0,0,1-5.8454-14.2334,19.9992,19.9992,0,0,1,2.6138-10.163A19.3085,19.3085,0,0,1,316.988,30.46a20.8145,20.8145,0,0,1,10.3443-2.6809,21.5008,21.5008,0,0,1,9.38,2.0465,20.2006,20.2006,0,0,1,7.3087,6.01l.2073.27,4.2724-3.2774-.1933-.2683a23.7405,23.7405,0,0,0-8.8962-7.4734,27.3223,27.3223,0,0,0-12.1438-2.6623A25.6162,25.6162,0,0,0,308.7328,29.63a23.9189,23.9189,0,0,0-7.4057,17.7672,25.4454,25.4454,0,0,0,6.1118,17.1176c4.8383,5.5757,11.5312,8.4034,19.8934,8.4034A28.2322,28.2322,0,0,0,339.3246,70.42a24.3582,24.3582,0,0,0,8.9746-7.0789l.2132-.2717-4.2711-3.24Z" transform="translate(-29.1191 -6.106)"></path><path class="cls-3" d="M385.3169,48.3145v5.2582h15.0664a15.9884,15.9884,0,0,1-5.8161,10.1005,18.712,18.712,0,0,1-12.1663,4.0506,22.5735,22.5735,0,0,1-10.9288-2.7155,20.1323,20.1323,0,0,1-7.8016-7.4515,19.3334,19.3334,0,0,1-2.8217-9.9988,18.9323,18.9323,0,0,1,2.7254-9.74,19.648,19.648,0,0,1,7.6886-7.3067,21.6122,21.6122,0,0,1,19.5322-.7114,27.8591,27.8591,0,0,1,8.5847,5.846l.2338.23,4.1748-3.9549-.26-.2465a34.3578,34.3578,0,0,0-10.4871-7.0489,30.165,30.165,0,0,0-11.4782-2.2013A27.5031,27.5031,0,0,0,368.0505,25.74a24.5215,24.5215,0,0,0-9.415,9.2018,24.9109,24.9109,0,0,0-3.4315,12.7136,24.2585,24.2585,0,0,0,5.9816,16.1811c5.1585,6.0266,12.2526,9.0822,21.0864,9.0822,7.2822,0,13.1833-2.2086,17.5388-6.5641s6.5846-10.3091,6.6278-17.6975l.002-.3421Z" transform="translate(-29.1191 -6.106)"></path><path class="cls-2" d="M264.2344,98.5467a6.9369,6.9369,0,0,0-2.0526-1.1232,4.6622,4.6622,0,0,0,2.2664-4.0678,4.8338,4.8338,0,0,0-.7506-2.6284A4.5519,4.5519,0,0,0,261.65,88.969a9.3515,9.3515,0,0,0-3.6421-.5659h-4.0226v19.8821h5.5371a6.6334,6.6334,0,0,0,4.7334-1.6739,5.4528,5.4528,0,0,0,1.7735-4.1023,5.24,5.24,0,0,0-.4729-2.2166A5.0479,5.0479,0,0,0,264.2344,98.5467Zm-2.675-3.474a3.0847,3.0847,0,0,1-1.4394,1.1339,8.644,8.644,0,0,1-2.9333.3667h-.9485V90.6562h2.0937a4.5839,4.5839,0,0,1,2.88.726,2.3854,2.3854,0,0,1,.8768,1.9735A2.982,2.982,0,0,1,261.5594,95.0727ZM256.2382,98.88h.9352a17.0588,17.0588,0,0,1,3.4342.2345,4.2243,4.2243,0,0,1,2.2531,1.2754,3.2443,3.2443,0,0,1,.2325,3.99,3.4142,3.4142,0,0,1-1.5284,1.2474,8.577,8.577,0,0,1-3.0748.4052h-2.2518Z" transform="translate(-29.1191 -6.106)"></path><path class="cls-2" d="M283.8043,101.033a8.022,8.022,0,0,0-1.632-5.0456,7.3248,7.3248,0,0,0-6.0373-2.8682A7.0925,7.0925,0,0,0,270.27,95.921a7.9308,7.9308,0,0,0-1.7251,5.0071,8.0207,8.0207,0,0,0,2.0353,5.3518,7.1,7.1,0,0,0,5.6607,2.3773,8.13,8.13,0,0,0,2.92-.4962,7.2751,7.2751,0,0,0,2.3282-1.4487,8.74,8.74,0,0,0,1.818-2.4922l.0764-.15-1.8586-.9764-.0823.1375a8.5329,8.5329,0,0,1-1.55,2.0106,5.51,5.51,0,0,1-1.7218.9878,6.0319,6.0319,0,0,1-2.09.3733,4.9919,4.9919,0,0,1-3.7224-1.5583,5.7006,5.7006,0,0,1-1.5557-3.8407h13.002Zm-12.7614-1.7762a5.8649,5.8649,0,0,1,1.5749-2.6922,5.154,5.154,0,0,1,3.5437-1.3251,5.6194,5.6194,0,0,1,2.3887.5287,4.9846,4.9846,0,0,1,1.8213,1.3869,5.8353,5.8353,0,0,1,.9964,2.1017Z" transform="translate(-29.1191 -6.106)"></path><path class="cls-2" d="M297.351,93.9708a5.3106,5.3106,0,0,0-2.9692-.8516,6.267,6.267,0,0,0-3.03.7579,7.6781,7.6781,0,0,0-2.22,1.8838v-2.27h-2.2v14.794h2.2v-5.4707a19.2172,19.2172,0,0,1,.26-3.89,5.0854,5.0854,0,0,1,1.7044-2.6756,4.4443,4.4443,0,0,1,2.9147-1.0761,3.5949,3.5949,0,0,1,2.2857.6875,3.5179,3.5179,0,0,1,1.18,2.0665,16.9619,16.9619,0,0,1,.2019,3.2933v7.0649h2.2v-7.61a11.9387,11.9387,0,0,0-.6118-4.4112A5.0909,5.0909,0,0,0,297.351,93.9708Z" transform="translate(-29.1191 -6.106)"></path><path class="cls-2" d="M318.0794,101.033a8.0221,8.0221,0,0,0-1.6321-5.0456,7.3247,7.3247,0,0,0-6.0373-2.8682,7.0927,7.0927,0,0,0-5.8646,2.8018,7.9307,7.9307,0,0,0-1.725,5.0071,8.0211,8.0211,0,0,0,2.0352,5.3518,7.1,7.1,0,0,0,5.6607,2.3773,8.1291,8.1291,0,0,0,2.92-.4962,7.274,7.274,0,0,0,2.3282-1.4487,8.7376,8.7376,0,0,0,1.818-2.4922l.0764-.15-1.8585-.9764-.0824.1375a8.53,8.53,0,0,1-1.55,2.0106,5.5092,5.5092,0,0,1-1.7217.9878,6.0323,6.0323,0,0,1-2.09.3733,4.9919,4.9919,0,0,1-3.7225-1.5583,5.7,5.7,0,0,1-1.5556-3.8407h13.0019Zm-12.7615-1.7762a5.8666,5.8666,0,0,1,1.5749-2.6922,5.1544,5.1544,0,0,1,3.5438-1.3251,5.6189,5.6189,0,0,1,2.3886.5287,4.9858,4.9858,0,0,1,1.8214,1.3869,5.8369,5.8369,0,0,1,.9963,2.1017Z" transform="translate(-29.1191 -6.106)"></path><path class="cls-2" d="M323.4219,87.9686a2.45,2.45,0,0,0-1.0389,1.1485,6.2118,6.2118,0,0,0-.2995,2.2857v2.0884h-1.9v1.9475h1.9v12.8465h2.2l.0107-12.8465h3.0183V93.4912h-3.017l.0013-1.7829a6.4856,6.4856,0,0,1,.0844-1.4679.8138.8138,0,0,1,.3786-.4132,2.9069,2.9069,0,0,1,2.5016.23l.2371.1016V87.9547l-.1222-.0365C325.5867,87.3914,324.34,87.424,323.4219,87.9686Z" transform="translate(-29.1191 -6.106)"></path><path class="cls-2" d="M330.5632,87.54a1.6344,1.6344,0,0,0-1.193.5022,1.7,1.7,0,0,0,.0007,2.4052,1.6985,1.6985,0,0,0,2.8968-1.1963,1.71,1.71,0,0,0-1.7045-1.7111Z" transform="translate(-29.1191 -6.106)"></path><rect class="cls-2" x="300.3507" y="87.3852" width="2.2" height="14.7941"></rect><polygon class="cls-2" points="309.897 82.018 307.697 82.018 307.697 87.385 305.16 87.385 305.16 89.333 307.697 89.333 307.697 102.179 309.897 102.179 309.897 89.333 312.847 89.333 312.847 87.385 309.897 87.385 309.897 82.018"></polygon><path class="cls-2" d="M347.7393,95.2a4.16,4.16,0,0,1,2.7991,1.4l.1222.1183,1.4321-1.48-.1222-.1182a6.0731,6.0731,0,0,0-4.1369-2.0007,4.1032,4.1032,0,0,0-2.96,1.1372,3.83,3.83,0,0,0-1.1757,2.8589,3.9366,3.9366,0,0,0,.7373,2.3441,7.69,7.69,0,0,0,2.7234,2.0452,8.24,8.24,0,0,1,2.29,1.4986,1.9744,1.9744,0,0,1,.48,1.3125,2.0368,2.0368,0,0,1-.7293,1.5617,2.5418,2.5418,0,0,1-1.7908.6728,3.9213,3.9213,0,0,1-2.8948-1.55l-.1282-.1442-1.3889,1.579.0863.1109a5.3851,5.3851,0,0,0,1.9429,1.55,5.6551,5.6551,0,0,0,2.4624.5613,4.45,4.45,0,0,0,3.2455-1.2846,4.2575,4.2575,0,0,0,1.3019-3.1366,3.9622,3.9622,0,0,0-.7659-2.3733,8.5388,8.5388,0,0,0-2.8815-2.1223,7.3673,7.3673,0,0,1-2.1827-1.4853,1.9123,1.9123,0,0,1-.4935-1.2328,1.6685,1.6685,0,0,1,.5912-1.27A2.0471,2.0471,0,0,1,347.7393,95.2Z" transform="translate(-29.1191 -6.106)"></path><path class="cls-2" d="M375.0769,95.8147a7.3234,7.3234,0,0,0-2.2816-1.919,7.0149,7.0149,0,0,0-3.3007-.7765,7.3407,7.3407,0,0,0-5.395,2.2691,7.5209,7.5209,0,0,0-2.2411,5.46,7.6571,7.6571,0,0,0,2.2205,5.5324,7.5,7.5,0,0,0,8.6193,1.5418,8.0013,8.0013,0,0,0,2.3786-1.834v2.1966H377.25V93.4912h-2.1734Zm-1.4846,1.0721a5.6123,5.6123,0,0,1,1.6042,4.0745,5.8144,5.8144,0,0,1-.7141,2.8762,5.2442,5.2442,0,0,1-2.04,2.0179,5.6551,5.6551,0,0,1-2.8084.748,5.3466,5.3466,0,0,1-2.7473-.7533,5.563,5.563,0,0,1-2.0412-2.1056,5.6892,5.6892,0,0,1-.0067-5.672,5.4416,5.4416,0,0,1,4.8085-2.82A5.3312,5.3312,0,0,1,373.5923,96.8868Z" transform="translate(-29.1191 -6.106)"></path><path class="cls-2" d="M391.5143,93.9708a5.31,5.31,0,0,0-2.9691-.8516,6.2667,6.2667,0,0,0-3.03.7579,7.6781,7.6781,0,0,0-2.22,1.8838v-2.27h-2.2v14.794h2.2v-5.4707a19.2172,19.2172,0,0,1,.26-3.89,5.0854,5.0854,0,0,1,1.7044-2.6756,4.4443,4.4443,0,0,1,2.9147-1.0761,3.5949,3.5949,0,0,1,2.2857.6875,3.5173,3.5173,0,0,1,1.18,2.0665,16.9509,16.9509,0,0,1,.202,3.2933v7.0649h2.2v-7.61a11.9408,11.9408,0,0,0-.6118-4.4112A5.0917,5.0917,0,0,0,391.5143,93.9708Z" transform="translate(-29.1191 -6.106)"></path><path class="cls-2" d="M410.2819,95.8147A7.3226,7.3226,0,0,0,408,93.8957a7.0142,7.0142,0,0,0-3.3006-.7765,7.3407,7.3407,0,0,0-5.395,2.2691,7.521,7.521,0,0,0-2.2412,5.46,7.6572,7.6572,0,0,0,2.2206,5.5324,7.5,7.5,0,0,0,8.6193,1.5418,8.0013,8.0013,0,0,0,2.3786-1.834v2.1966h2.1734V87.9115h-2.1734Zm-1.4846,1.0721a5.6123,5.6123,0,0,1,1.6042,4.0745,5.8144,5.8144,0,0,1-.7141,2.8762,5.2442,5.2442,0,0,1-2.04,2.0179,5.6554,5.6554,0,0,1-2.8084.748,5.3464,5.3464,0,0,1-2.7473-.7533,5.563,5.563,0,0,1-2.0412-2.1056,5.6892,5.6892,0,0,1-.0067-5.672,5.4416,5.4416,0,0,1,4.8085-2.82A5.3313,5.3313,0,0,1,408.7973,96.8868Z" transform="translate(-29.1191 -6.106)"></path><polygon class="cls-2" points="406.922 90.494 397.312 90.494 397.312 82.297 395.019 82.297 395.019 102.179 397.312 102.179 397.312 92.747 406.922 92.747 406.922 102.179 409.215 102.179 409.215 82.297 406.922 82.297 406.922 90.494"></polygon><path class="cls-2" d="M452.4216,98.5653a4.8753,4.8753,0,0,0,2.2206-1.895,5.3946,5.3946,0,0,0,.7765-2.8962A5.0637,5.0637,0,0,0,454.29,90.44a5.2189,5.2189,0,0,0-2.9226-1.7655,23.7605,23.7605,0,0,0-4.4485-.271h-4.0625v19.8821h2.293V99.2117H446l6.9772,9.0078.05.0657h2.847l-7.0317-9.0782A9.5843,9.5843,0,0,0,452.4216,98.5653Zm-4.0745-1.58L445.15,96.96V90.6562h3.276a8.3878,8.3878,0,0,1,2.8118.3334,2.8108,2.8108,0,0,1,1.3178,1.0847,3.0206,3.0206,0,0,1,.5042,1.6932,3.1554,3.1554,0,0,1-.4988,1.735,2.8508,2.8508,0,0,1-1.3843,1.1226A8.2281,8.2281,0,0,1,448.3471,96.9851Z" transform="translate(-29.1191 -6.106)"></path><path class="cls-2" d="M474.3643,88.4031l-9.2788,19.64-.115.2424h2.5547l3.0449-6.43h8.2041l3.0728,6.43h2.4836l-9.2722-19.8821Zm3.4036,11.2257h-6.1443l3.0788-6.5056Z" transform="translate(-29.1191 -6.106)"></path><path class="cls-2" d="M499.2111,95.8147a7.3248,7.3248,0,0,0-2.2817-1.919,7.0149,7.0149,0,0,0-3.3007-.7765,7.3409,7.3409,0,0,0-5.395,2.2691,7.5209,7.5209,0,0,0-2.2411,5.46,7.6571,7.6571,0,0,0,2.2205,5.5324,7.5,7.5,0,0,0,8.6193,1.5418,8.0029,8.0029,0,0,0,2.3787-1.834v2.1966h2.1734V87.9115h-2.1734Zm-1.4846,1.0721a5.6126,5.6126,0,0,1,1.6041,4.0745,5.8144,5.8144,0,0,1-.714,2.8762,5.2455,5.2455,0,0,1-2.04,2.0179,5.6557,5.6557,0,0,1-2.8085.748,5.3466,5.3466,0,0,1-2.7473-.7533,5.563,5.563,0,0,1-2.0412-2.1056,5.6892,5.6892,0,0,1-.0067-5.672,5.4416,5.4416,0,0,1,4.8085-2.82A5.3316,5.3316,0,0,1,497.7265,96.8868Z" transform="translate(-29.1191 -6.106)"></path><polygon class="cls-2" points="481.769 97.683 477.072 87.484 477.027 87.385 474.673 87.385 481.439 102.08 481.485 102.179 482.048 102.179 488.82 87.385 486.453 87.385 481.769 97.683"></polygon><rect class="cls-2" x="490.9359" y="87.3852" width="2.2" height="14.7941"></rect><path class="cls-2" d="M521.1484,87.54a1.6344,1.6344,0,0,0-1.193.5022,1.7,1.7,0,0,0,.0007,2.4052,1.6985,1.6985,0,0,0,2.8968-1.1963,1.71,1.71,0,0,0-1.7045-1.7111Z" transform="translate(-29.1191 -6.106)"></path><path class="cls-2" d="M529.1047,95.2a4.1606,4.1606,0,0,1,2.7992,1.4l.1222.1183,1.4321-1.48-.1222-.1182a6.0731,6.0731,0,0,0-4.1369-2.0007,4.1032,4.1032,0,0,0-2.96,1.1372,3.83,3.83,0,0,0-1.1757,2.8589,3.9359,3.9359,0,0,0,.7373,2.3441,7.69,7.69,0,0,0,2.7234,2.0452,8.2393,8.2393,0,0,1,2.29,1.4986,1.9745,1.9745,0,0,1,.48,1.3125,2.0369,2.0369,0,0,1-.7294,1.5617,2.5418,2.5418,0,0,1-1.7908.6728,3.9213,3.9213,0,0,1-2.8947-1.55l-.1282-.1442-1.389,1.579.0864.1109a5.3851,5.3851,0,0,0,1.9429,1.55,5.6544,5.6544,0,0,0,2.4624.5613,4.4505,4.4505,0,0,0,3.2455-1.2846,4.2579,4.2579,0,0,0,1.3019-3.1366,3.9622,3.9622,0,0,0-.7659-2.3733,8.5388,8.5388,0,0,0-2.8815-2.1223,7.3659,7.3659,0,0,1-2.1827-1.4853,1.9123,1.9123,0,0,1-.4935-1.2328,1.6688,1.6688,0,0,1,.5911-1.27A2.0471,2.0471,0,0,1,529.1047,95.2Z" transform="translate(-29.1191 -6.106)"></path><path class="cls-2" d="M543.3541,93.1192a7.35,7.35,0,0,0-5.6753,2.4869,7.9122,7.9122,0,0,0,.1149,10.7316,7.8093,7.8093,0,0,0,11.1075.0006,7.93,7.93,0,0,0,.1149-10.7455A7.3527,7.3527,0,0,0,543.3541,93.1192Zm-.0066,2.16a5.2272,5.2272,0,0,1,3.8572,1.6626,5.5739,5.5739,0,0,1,1.6255,4.026,5.7456,5.7456,0,0,1-.738,2.84,5.2438,5.2438,0,0,1-1.99,2.0279,5.6657,5.6657,0,0,1-5.5092,0,5.2351,5.2351,0,0,1-1.99-2.0279,5.7445,5.7445,0,0,1-.738-2.84,5.5875,5.5875,0,0,1,1.6174-4.026A5.2288,5.2288,0,0,1,543.3475,95.2793Z" transform="translate(-29.1191 -6.106)"></path><path class="cls-2" d="M561.0131,93.6327a3.5746,3.5746,0,0,0-1.73-.5135,3.7176,3.7176,0,0,0-2.0591.6456,6.3762,6.3762,0,0,0-1.5305,1.482V93.4912h-2.24v14.794h2.24v-5.0589a22.82,22.82,0,0,1,.3388-4.9492,4.6989,4.6989,0,0,1,1.2647-2.29,2.5317,2.5317,0,0,1,1.6806-.7214,2.4443,2.4443,0,0,1,.916.2385l.1341.0585,1.1405-1.844Z" transform="translate(-29.1191 -6.106)"></path><path class="cls-2" d="M566.3138,99.74a7.3682,7.3682,0,0,1-2.1828-1.4853,1.9129,1.9129,0,0,1-.4935-1.2328,1.6685,1.6685,0,0,1,.5912-1.27,2.0471,2.0471,0,0,1,1.4361-.5527,4.16,4.16,0,0,1,2.7991,1.4l.1222.1183,1.4321-1.48-.1222-.1182a6.0731,6.0731,0,0,0-4.1369-2.0007,4.1034,4.1034,0,0,0-2.96,1.1372,3.83,3.83,0,0,0-1.1757,2.8589,3.9366,3.9366,0,0,0,.7373,2.3441,7.6923,7.6923,0,0,0,2.7234,2.0452,8.2387,8.2387,0,0,1,2.29,1.4986,1.9744,1.9744,0,0,1,.48,1.3125,2.0368,2.0368,0,0,1-.7293,1.5617,2.5418,2.5418,0,0,1-1.7908.6728,3.9215,3.9215,0,0,1-2.8948-1.55l-.1282-.1442-1.3889,1.579.0863.1109a5.3851,5.3851,0,0,0,1.9429,1.55,5.6551,5.6551,0,0,0,2.4624.5613,4.45,4.45,0,0,0,3.2455-1.2846,4.2575,4.2575,0,0,0,1.3019-3.1366,3.9615,3.9615,0,0,0-.7659-2.3733A8.5392,8.5392,0,0,0,566.3138,99.74Z" transform="translate(-29.1191 -6.106)"></path><text class="cls-4" transform="translate(319.5039 126.3706)">powered by</text><path class="cls-2" d="M483.1245,126.5615V132.36h-3.4888V119.9557c.0659-.0277.1223-.0728.1776-.0714,2.4236.064,4.85.0785,7.2685.2325a4.809,4.809,0,0,1,2.12.763,2.7578,2.7578,0,0,1-.1721,4.7145,19.626,19.626,0,0,1-2.2772.8851l4.4048,5.919c-1.2445,0-2.364.0177-3.4817-.0193-.1661-.0055-.3586-.2442-.48-.4166-1.16-1.6489-2.307-3.3075-3.4613-4.9607-.1229-.1761-.27-.3356-.4053-.5028Zm-.0105-1.0928c.9528-.1587,1.79-.2377,2.592-.4478a1.596,1.596,0,0,0,1.2555-1.7432,1.6244,1.6244,0,0,0-1.2382-1.7628,14.5011,14.5011,0,0,0-2.2433-.3094c-.1119-.0109-.3482.18-.35.2808C483.1056,122.7526,483.114,124.0194,483.114,125.4687Z" transform="translate(-29.1191 -6.106)"></path><path class="cls-2" d="M543.7422,119.9492a.5659.5659,0,0,1,.18-.0684c2.3835.059,4.7712.0595,7.1481.22a5.17,5.17,0,0,1,2.29.8224,2.7532,2.7532,0,0,1-.1337,4.6157,18.7252,18.7252,0,0,1-2.3664.95l4.4009,5.9117c-1.2506,0-2.3546.0208-3.4563-.0207-.1822-.0068-.3939-.2582-.5248-.444-1.15-1.6315-2.2827-3.2751-3.4265-4.9109a6.7388,6.7388,0,0,0-.4544-.5291l-.15.0537v5.8h-3.5075Zm3.4634,5.527c.976-.17,1.8507-.2606,2.6893-.486a1.5551,1.5551,0,0,0,1.1639-1.6841,1.5855,1.5855,0,0,0-1.1525-1.7568,15.3151,15.3151,0,0,0-2.3636-.3435c-.1-.0107-.32.2-.3223.3108C547.1971,122.7655,547.2056,124.0149,547.2056,125.4762Z" transform="translate(-29.1191 -6.106)"></path><path class="cls-2" d="M524.9607,119.9429H528.37v.7026q0,3.9534.0006,7.907c.002,2.1284.47,2.6171,2.5824,2.7126,2.127.0962,2.7092-.4581,2.71-2.5873q.0022-3.9843,0-7.9688v-.7652h3.4791c.0119.238.03.4381.0306.6382q.003,4.2624.0006,8.5247a2.5945,2.5945,0,0,1-2.0043,2.8863,12.379,12.379,0,0,1-3.3305.5233,25.9479,25.9479,0,0,1-4.1084-.3218,5.16,5.16,0,0,1-1.7527-.7221,2.07,2.07,0,0,1-1.0786-1.8381c-.0164-3.15-.006-6.3007-.003-9.4511A1.2322,1.2322,0,0,1,524.9607,119.9429Z" transform="translate(-29.1191 -6.106)"></path><path class="cls-2" d="M457.9519,132.4018c-1.023,0-1.99.0162-2.9545-.0153a.6743.6743,0,0,1-.4832-.3316,17.0454,17.0454,0,0,1-.6572-1.6616.6.6,0,0,0-.663-.4843c-1.5219.0234-3.0446.0181-4.5668.0033a.5675.5675,0,0,0-.6383.43c-.1936.5635-.4129,1.12-.6557,1.6638-.07.158-.2542.3719-.392.3763-.9986.0322-1.9987.0173-3.0925.0173.14-.33.2365-.572.3432-.8093,1.67-3.7132,3.35-7.4223,5.0017-11.1434a.8125.8125,0,0,1,.92-.5937c.5931.0456,1.1951-.0213,1.7876.0279a.833.833,0,0,1,.6024.3611q2.7283,5.9428,5.4086,11.9076A1.275,1.275,0,0,1,457.9519,132.4018Zm-4.7713-3.7942-2.2415-5.7942-.1448.0252-2.1057,5.769Z" transform="translate(-29.1191 -6.106)"></path><path class="cls-2" d="M565.3012,125.2616h5.2851v1.427h-5.3345c0,1.3821-.0133,2.673.0228,3.9625.0032.1139.327.31.5044.3134,1.5019.0253,3.0044.0146,4.5066.0146.2229,0,.4457,0,.706,0v1.3742h-9.15V119.9251H571v1.36h-5.6988Z" transform="translate(-29.1191 -6.106)"></path><path class="cls-2" d="M473.0229,119.871v1.4674c-.7457-.0528-1.4567-.1214-2.1692-.1461a6.6367,6.6367,0,0,0-1.1676.0788c-2.3451.3374-3.4994,1.4542-3.7276,3.8064a16.3251,16.3251,0,0,0,.1156,3.1919,2.67,2.67,0,0,0,1.813,2.2317,7.9957,7.9957,0,0,0,4.4938.3059c.1976-.0318.3942-.07.5751-.1027a.7537.7537,0,0,1,.0791.1625c.1483,1.2977.0918,1.3792-1.1921,1.5327a13.419,13.419,0,0,1-6.9076-.7974,4.109,4.109,0,0,1-2.58-3.1533,10.006,10.006,0,0,1,.1475-4.7077,4.7236,4.7236,0,0,1,2.8182-3.1508,13.4067,13.4067,0,0,1,6.7842-.8242C472.3905,119.79,472.6739,119.8306,473.0229,119.871Z" transform="translate(-29.1191 -6.106)"></path><path class="cls-2" d="M517.3664,121.4308a14.7963,14.7963,0,0,0-2.352-.3149,9.9955,9.9955,0,0,0-2.8956.39c-1.3756.4558-1.4868,1.4393-.3328,2.308.7369.5548,1.5516,1.0059,2.3269,1.51,1.0509.6839,2.1413,1.3171,3.1361,2.0752,1.6266,1.24,1.4845,3.0325-.2747,4.067a9.1459,9.1459,0,0,1-5.0081,1.05c-1.0242-.026-2.0437-.2057-3.0676-.2891-.5129-.0417-.7355-.2551-.6571-.7831a5.5376,5.5376,0,0,0,.0066-.7948c.9073.17,1.7285.3571,2.56.47a5.7321,5.7321,0,0,0,3.2583-.444c1.248-.584,1.3882-1.6362.2583-2.4134-1.2688-.8728-2.6268-1.615-3.9292-2.4407a14.529,14.529,0,0,1-1.8543-1.3223,2.1572,2.1572,0,0,1,.13-3.5068,6.213,6.213,0,0,1,3.7521-1.2355c1.4107-.0309,2.8254.1323,4.2387.2046.5858.03.8564.2974.7412.9027A4.6443,4.6443,0,0,0,517.3664,121.4308Z" transform="translate(-29.1191 -6.106)"></path><path class="cls-2" d="M497.72,119.9094h3.448v12.45H497.72Z" transform="translate(-29.1191 -6.106)"></path></svg> 