<svg width="37" height="25" viewBox="0 0 37 25" fill="none" xmlns="http://www.w3.org/2000/svg">
<path d="M22.2832 3.59473C22.2327 3.72184 22.1973 3.8402 22.1412 3.94774C21.4156 5.37122 20.2007 6.48734 18.7181 7.09245C18.5251 7.16017 18.3139 7.15598 18.1238 7.08065C16.6546 6.48792 15.4542 5.37959 14.7492 3.96502C14.6987 3.83363 14.6752 3.69343 14.6802 3.55279C14.6852 3.41216 14.7186 3.27397 14.7784 3.14648C15.4985 1.7052 16.6627 0.717107 18.1245 0.0693736C18.295 -0.0081267 18.4883 -0.0197914 18.667 0.0366397C20.2039 0.702863 21.4026 1.74527 22.1615 3.25479C22.2092 3.36543 22.2499 3.47897 22.2832 3.59473V3.59473Z" fill="#39607A"/>
<path d="M27.6616 9.3864C27.6012 9.51894 27.5508 9.64942 27.4847 9.77156C26.9249 10.8193 26.026 11.6477 24.9341 12.122C24.7134 12.2082 24.4684 12.2088 24.2473 12.1238C23.1462 11.6675 22.2434 10.8365 21.6998 9.77883C21.6459 9.65938 21.6168 9.53026 21.6143 9.39929C21.6118 9.26831 21.636 9.13819 21.6854 9.0168C22.2456 7.88753 23.1664 7.11528 24.3028 6.59537C24.4598 6.52505 24.6376 6.51657 24.8007 6.57163C26.0005 7.06847 26.9804 7.97958 27.5609 9.13795C27.5994 9.21527 27.6262 9.29842 27.6616 9.3864Z" fill="#39607A"/>
<path d="M12.3005 6.50995C12.4144 6.54293 12.5264 6.58213 12.636 6.62738C13.7404 7.11545 14.6436 7.96595 15.195 9.03713C15.2412 9.14178 15.2658 9.25468 15.2672 9.36904C15.2686 9.48341 15.2467 9.59686 15.2029 9.70259C14.6463 10.8124 13.7043 11.6832 12.5519 12.1531C12.3773 12.2207 12.1837 12.2218 12.0083 12.1561C10.8404 11.676 9.8891 10.7867 9.33393 9.65576C9.29622 9.57256 9.27557 9.48269 9.2732 9.39143C9.27082 9.30017 9.28677 9.20935 9.32011 9.12432C9.89112 7.98229 10.8519 7.08044 12.03 6.58061C12.118 6.54972 12.2085 6.52609 12.3005 6.50995V6.50995Z" fill="#39607A"/>
<path d="M6.58983 17.4727C6.40372 17.3896 6.19107 17.3096 5.9926 17.2034C5.2183 16.8107 4.58901 16.1833 4.19535 15.4114C4.14381 15.2917 4.11709 15.1627 4.1168 15.0324C4.11652 14.9021 4.14267 14.7731 4.19369 14.653C4.63742 13.7857 5.37449 13.1025 6.2747 12.7241C6.4766 12.6381 6.70336 12.6299 6.91099 12.7011C7.8459 13.0886 8.61234 13.7944 9.07374 14.6926C9.12049 14.7798 9.14926 14.8755 9.15835 14.974C9.16744 15.0725 9.15666 15.1719 9.12666 15.2662C8.65564 16.2188 7.85771 16.9717 6.8775 17.3885C6.7835 17.4226 6.68742 17.4507 6.58983 17.4727Z" fill="#39607A"/>
<path d="M30.1994 17.4744C30.0572 17.4133 29.8932 17.3538 29.7392 17.2748C28.9551 16.8685 28.2957 16.2587 27.8308 15.5098C27.7288 15.3689 27.6747 15.1992 27.6764 15.0255C27.678 14.8519 27.7353 14.6832 27.8399 14.5443C28.3304 13.7257 29.0643 13.0794 29.9398 12.6952C30.1295 12.6211 30.3404 12.622 30.5294 12.6977C31.4607 13.0928 32.2246 13.799 32.6894 14.695C32.7343 14.7927 32.7591 14.8984 32.7624 15.0058C32.7657 15.1133 32.7475 15.2203 32.7088 15.3206C32.24 16.2923 31.4512 16.9441 30.4829 17.3935C30.3905 17.4273 30.2958 17.4543 30.1994 17.4744V17.4744Z" fill="#39607A"/>
<path d="M21.0727 13.5073C20.6715 13.982 20.3266 14.5623 19.8289 14.9458C18.4505 16.0078 18.3597 16.0881 17.0354 14.9284C15.4432 13.5341 15.438 13.1197 17.028 11.7192C18.3706 10.5366 18.4582 10.6361 19.8544 11.7154C20.2719 12.0381 20.5567 12.5359 20.8829 12.9681C20.9689 13.139 21.0327 13.3203 21.0727 13.5073V13.5073Z" fill="#39607A"/>
<path d="M23.751 14.9854C24.1951 15.2788 24.6394 15.4835 24.9684 15.8052C26.2335 17.0422 26.289 17.3081 24.9673 18.4828C23.8278 19.4955 23.6726 19.5013 22.5134 18.4779C21.2408 17.3544 21.2479 17.0208 22.5403 15.7865C22.8725 15.4692 23.316 15.2677 23.751 14.9854Z" fill="#39607A"/>
<path d="M15.3725 17.0124C15.3188 17.1921 15.245 17.3651 15.1524 17.5283C14.8417 17.9049 14.5637 18.3353 14.1796 18.6195C13.1045 19.4152 13.0726 19.4771 12.0473 18.6151C10.5487 17.3551 10.5509 16.9671 12.0233 15.7062C13.0492 14.8276 13.14 14.8798 14.1994 15.6999C14.6671 16.0621 15.0045 16.5915 15.3725 17.0124Z" fill="#39607A"/>
<path d="M4.17461 20.203C4.08262 20.3933 3.97643 20.5765 3.85695 20.751C2.41188 22.5642 1.70087 22.5245 0.250812 20.7861C-0.0818802 20.3873 -0.0841725 20.0162 0.247383 19.6149C1.70411 17.8516 2.40962 17.8397 3.85334 19.6393C3.97513 19.8185 4.08255 20.0069 4.17461 20.203V20.203Z" fill="#39607A"/>
<path d="M34.7979 22.2325C34.4057 21.9904 34.0039 21.8222 33.7049 21.5441C32.3913 20.3229 32.3894 20.026 33.6774 18.8926C34.6908 18.0009 34.8932 17.9887 35.9183 18.9077C37.1725 20.0323 37.1524 20.3168 35.9233 21.5026C35.6173 21.7978 35.1993 21.9776 34.7979 22.2325Z" fill="#39607A"/>
<path d="M30.1783 20.9725C30.0244 21.2566 29.8452 21.5262 29.6429 21.7782C28.3384 23.1288 27.9341 23.1273 26.6263 21.726C26.0271 21.0839 26.042 20.8039 26.6611 20.1617C27.9655 18.8084 28.367 18.7993 29.7162 20.2346C29.8934 20.4654 30.0481 20.7125 30.1783 20.9725V20.9725Z" fill="#39607A"/>
<path d="M10.7072 20.9648C10.5792 21.2199 10.4276 21.4625 10.2542 21.6894C8.90957 23.1407 8.4745 23.1327 7.17223 21.7388C6.58251 21.1076 6.57926 20.8271 7.1563 20.2079C8.47566 18.792 8.93296 18.8016 10.279 20.2678C10.4433 20.4863 10.5866 20.7197 10.7072 20.9648V20.9648Z" fill="#39607A"/>
<path d="M20.2354 20.4293C19.9476 20.809 19.635 21.1693 19.2995 21.5078C18.6261 22.1022 18.2202 22.1046 17.5598 21.5109C16.5371 20.5916 16.5622 20.2648 17.5372 19.3604C18.2128 18.7337 18.6168 18.7353 19.3126 19.3551C19.6438 19.6924 19.9521 20.0512 20.2354 20.4293Z" fill="#39607A"/>
<path d="M23.5361 23.6674C23.3814 24.143 22.9784 24.4623 22.5305 24.7537C22.2055 24.9652 21.93 24.8269 21.7265 24.6157C21.4219 24.2996 20.9479 23.9182 20.9592 23.5781C20.978 23.0111 21.5404 22.6669 22.0608 22.4151C22.1236 22.385 22.1929 22.371 22.2624 22.3745C22.6807 22.4032 23.524 23.221 23.5361 23.6674Z" fill="#39607A"/>
<path d="M15.923 23.6683C15.7709 24.1641 15.3636 24.4793 14.9119 24.7656C14.5567 24.9908 14.2714 24.7958 14.0727 24.5774C13.7827 24.2588 13.2979 23.753 13.3902 23.5291C13.5749 23.0807 14.0919 22.7665 14.4794 22.405C14.5406 22.3711 14.612 22.3605 14.6804 22.3751C15.1193 22.4232 15.9321 23.2412 15.923 23.6683Z" fill="#39607A"/>
</svg>
