<svg width="512" height="512" viewBox="0 0 512 512" fill="none" xmlns="http://www.w3.org/2000/svg">
<path d="M511.598 36.853L447.598 451.953C446.098 461.687 440.223 470.173 431.628 475.003C426.784 477.722 421.358 479.1 415.948 479.1C411.76 479.1 407.629 478.285 403.658 476.628L281.058 425.528L230.198 501.818C226.298 508.493 219.798 511.993 212.798 511.993C201.298 511.993 191.998 502.693 191.998 491.193V395.013C191.998 387.898 194.37 380.983 198.74 375.373L415.998 95.993L122.298 360.293L19.6884 317.493C8.43645 312.793 0.810947 302.193 0.0609468 289.093C-0.689053 275.993 5.52995 265.373 16.1209 259.323L464.121 4.22303C474.811 -1.88597 488.001 -1.32397 498.121 5.62903C508.241 12.582 513.498 24.713 511.598 36.853Z" fill="#0F1941"/>
</svg>
